<svg width="41" height="41" viewBox="0 0 41 41" fill="none" xmlns="http://www.w3.org/2000/svg">
<g clip-path="url(#clip0_11_240)">
<path d="M20.5001 40.1808C31.1209 40.1808 39.7308 31.5709 39.7308 20.95C39.7308 10.3291 31.1209 1.71924 20.5001 1.71924C9.8792 1.71924 1.26929 10.3291 1.26929 20.95C1.26929 31.5709 9.8792 40.1808 20.5001 40.1808Z" stroke="#F5333F"/>
<path d="M27.1996 26.308L27.9938 21.2682H23.2295V17.7404C23.2295 16.3292 23.7258 15.2204 25.9093 15.2204H28.1922V10.5838C26.9019 10.3822 25.5124 10.1807 24.2221 10.1807C20.1525 10.1807 17.2741 12.7006 17.2741 17.2364V21.2682H12.8076V26.308H17.2741V39.4114C18.2667 39.613 19.5073 40.1807 20.4999 40.1807C21.4925 40.1807 22.2368 39.613 23.2295 39.4114V26.308H27.1996Z" fill="#F5333F"/>
</g>
<defs>
<clipPath id="clip0_11_240">
<rect width="40" height="40" fill="white" transform="translate(0.5 0.949951)"/>
</clipPath>
</defs>
</svg>
