<svg width="41" height="41" viewBox="0 0 41 41" fill="none" xmlns="http://www.w3.org/2000/svg">
<g clip-path="url(#clip0_11_237)">
<path d="M20.5001 40.1808C31.1209 40.1808 39.7308 31.5709 39.7308 20.95C39.7308 10.3291 31.1209 1.71924 20.5001 1.71924C9.8792 1.71924 1.26929 10.3291 1.26929 20.95C1.26929 31.5709 9.8792 40.1808 20.5001 40.1808Z" stroke="#F5333F"/>
<path fill-rule="evenodd" clip-rule="evenodd" d="M33.879 7.10376H10.2799C9.15106 7.10376 8.19238 7.99651 8.19238 9.09628V32.8022C8.19238 33.9033 8.8214 34.7961 9.95018 34.7961H33.5493C34.6793 34.7961 35.8847 33.9033 35.8847 32.8022V9.09628C35.8847 7.99651 35.009 7.10376 33.879 7.10376ZM33.879 7.10376H10.2799C9.15106 7.10376 8.19238 7.99651 8.19238 9.09628V32.8022C8.19238 33.9033 8.8214 34.7961 9.95018 34.7961H33.5493C34.6793 34.7961 35.8847 33.9033 35.8847 32.8022V9.09628C35.8847 7.99651 35.009 7.10376 33.879 7.10376ZM18.7418 17.6531H22.4698V19.5535H22.5105C23.079 18.5288 24.7576 17.4884 26.8333 17.4884C30.817 17.4884 31.9287 19.6035 31.9287 23.5213V30.8401H27.9725V24.2427C27.9725 22.4888 27.2724 20.9499 25.6345 20.9499C23.6459 20.9499 22.6979 22.2962 22.6979 24.5064V30.8401H18.7418V17.6531ZM12.1484 30.8401H16.1045V17.6531H12.1484V30.8401ZM16.599 13.0378C16.5992 13.3625 16.5353 13.684 16.4112 13.984C16.2872 14.2839 16.1052 14.5565 15.8756 14.7862C15.6461 15.0158 15.3737 15.198 15.0738 15.3224C14.7739 15.4467 14.4524 15.5107 14.1278 15.5108C13.8031 15.5109 13.4816 15.447 13.1817 15.3229C12.8817 15.1987 12.6091 15.0166 12.3795 14.7871C12.1499 14.5576 11.9678 14.2851 11.8435 13.9852C11.7192 13.6853 11.6553 13.3638 11.6552 13.0391C11.6552 12.3836 11.9155 11.755 12.3789 11.2914C12.8424 10.8278 13.4709 10.5673 14.1264 10.5671C14.7819 10.5669 15.4107 10.8271 15.8743 11.2904C16.3381 11.7538 16.5987 12.3823 16.599 13.0378Z" fill="#F5333F"/>
</g>
<defs>
<clipPath id="clip0_11_237">
<rect width="40" height="40" fill="white" transform="translate(0.5 0.949951)"/>
</clipPath>
</defs>
</svg>
