<svg width="202" height="33" viewBox="0 0 202 33" fill="none" xmlns="http://www.w3.org/2000/svg">
<path d="M6.64869 31.5354H7.20905V30.975V13.3324L10.9042 31.0475L10.9972 31.4934H11.4528H14.5404H15.0006L15.0901 31.0421L18.5853 13.4072V30.975V31.5354H19.1456H22.1914H22.7518V30.975V2.02484V1.46448H22.1914H17.6908H17.2306L17.1411 1.91583L13.096 22.3122L8.89309 1.91177L8.80093 1.46448H8.34425H3.84368H3.28333V2.02484V30.975V31.5354H3.84368H6.64869ZM38.5974 31.5354H39.0598L39.1477 31.0816L40.1901 25.7003H46.5711L47.6137 31.0816L47.7016 31.5354H48.1638H51.3769H52.0545L51.9274 30.8698L46.3958 1.91967L46.3089 1.46448H45.8456H41.1618H40.6983L40.6113 1.91967L35.0798 30.8698L34.9527 31.5354H35.6302H38.5974ZM67.6994 31.5354H68.2597V30.975V11.2025L74.5754 31.1442L74.6994 31.5354H75.1097H78.4589H79.0192V30.975V2.02484V1.46448H78.4589H75.5964H75.036V2.02484V19.3644L69.4474 1.85446L69.3228 1.46448H68.9136H64.8159H64.2556V2.02484V30.975V31.5354H64.8159H67.6994ZM95.9379 31.5354H96.4982V30.975V2.02484V1.46448H95.9379H92.7089H92.1486V2.02484V30.975V31.5354H92.7089H95.9379ZM113.412 31.5354H113.972V30.975V19.0017H120.052H120.613V18.4414V15.5108V14.9505H120.052H113.972V5.53673H121.67H122.23V4.97637V2.02484V1.46448H121.67H110.183H109.622V2.02484V30.975V31.5354H110.183H113.412ZM139.415 26.901L139.414 26.8999C138.951 26.3173 138.678 25.4278 138.678 24.151V8.84896C138.678 7.58806 138.95 6.69973 139.416 6.1083C139.857 5.5488 140.532 5.23321 141.545 5.23321C142.58 5.23321 143.256 5.55095 143.688 6.10567C144.149 6.69736 144.418 7.58678 144.418 8.84896V24.151C144.418 25.4822 144.142 26.3765 143.687 26.9313C143.249 27.4649 142.571 27.7718 141.545 27.7718C140.531 27.7718 139.856 27.4574 139.415 26.901ZM173.698 31.5354H174.258V30.975V28.0496V27.4893H173.698H166V2.02484V1.46448H165.44H162.211H161.651V2.02484V30.975V31.5354H162.211H173.698ZM186.535 30.975V31.5354H187.095H193.884C196.179 31.5354 197.998 30.8791 199.229 29.4761V29.4755C200.435 28.0951 201 26.1857 201 23.8264V9.23621C201 6.86345 200.436 4.94147 199.231 3.54762V3.54695C198.001 2.12893 196.183 1.46448 193.884 1.46448H187.095H186.535V2.02484V30.975ZM45.9131 21.8165H40.8084L43.3297 8.63141L45.9131 21.8165ZM134.386 9.03212V23.9886C134.386 26.3311 134.972 28.2497 136.208 29.6775C137.464 31.1285 139.275 31.8179 141.545 31.8179C143.841 31.8179 145.67 31.1301 146.934 29.6788C148.178 28.251 148.768 26.3319 148.768 23.9886V9.03212C148.768 6.66683 148.179 4.73752 146.934 3.31517C145.67 1.86771 143.841 1.18188 141.545 1.18188C139.263 1.18188 137.447 1.86832 136.197 3.31749C134.967 4.73987 134.386 6.66827 134.386 9.03212ZM193.84 27.4893H190.89V5.53673H193.799C194.844 5.53673 195.534 5.84059 195.978 6.36319C196.436 6.90349 196.714 7.77398 196.714 9.07398V23.952C196.714 25.2533 196.439 26.1249 195.986 26.6654C195.549 27.1868 194.87 27.4893 193.84 27.4893Z" fill="black" stroke="black" stroke-width="0.856229" stroke-linecap="round"/>
<path d="M4.36537 31.5354H4.92572V30.975V13.3324L8.6209 31.0475L8.71392 31.4934H9.16946H12.257H12.7172L12.8067 31.0421L16.3019 13.4072V30.975V31.5354H16.8623H19.9081H20.4684V30.975V2.02484V1.46448H19.9081H15.4074H14.9473L14.8578 1.91583L10.8127 22.3122L6.60976 1.91177L6.51761 1.46448H6.06093H1.56036H1V2.02484V30.975V31.5354H1.56036H4.36537ZM36.3141 31.5354H36.7765L36.8644 31.0816L37.9068 25.7003H44.2878L45.3304 31.0816L45.4183 31.5354H45.8805H49.0936H49.7712L49.644 30.8698L44.1125 1.91967L44.0256 1.46448H43.5622H38.8784H38.4149L38.328 1.91967L32.7965 30.8698L32.6694 31.5354H33.3469H36.3141ZM65.416 31.5354H65.9764V30.975V11.2025L72.2921 31.1442L72.416 31.5354H72.8264H76.1756H76.7359V30.975V2.02484V1.46448H76.1756H73.3131H72.7527V2.02484V19.3644L67.164 1.85446L67.0395 1.46448H66.6302H62.5326H61.9722V2.02484V30.975V31.5354H62.5326H65.416ZM93.6546 31.5354H94.2149V30.975V2.02484V1.46448H93.6546H90.4256H89.8653V2.02484V30.975V31.5354H90.4256H93.6546ZM111.128 31.5354H111.689V30.975V19.0017H117.769H118.33V18.4414V15.5108V14.9505H117.769H111.689V5.53673H119.386H119.947V4.97637V2.02484V1.46448H119.386H107.899H107.339V2.02484V30.975V31.5354H107.899H111.128ZM137.132 26.901L137.131 26.8999C136.667 26.3173 136.395 25.4278 136.395 24.151V8.84896C136.395 7.58806 136.666 6.69973 137.133 6.1083C137.574 5.5488 138.248 5.23321 139.262 5.23321C140.297 5.23321 140.973 5.55095 141.405 6.10567C141.866 6.69736 142.135 7.58678 142.135 8.84896V24.151C142.135 25.4822 141.859 26.3765 141.404 26.9313C140.966 27.4649 140.288 27.7718 139.262 27.7718C138.247 27.7718 137.573 27.4574 137.132 26.901ZM171.414 31.5354H171.975V30.975V28.0496V27.4893H171.414H163.717V2.02484V1.46448H163.156H159.928H159.368V2.02484V30.975V31.5354H159.928H171.414ZM184.251 30.975V31.5354H184.812H191.6C193.896 31.5354 195.715 30.8791 196.946 29.4761V29.4755C198.152 28.0951 198.717 26.1857 198.717 23.8264V9.23621C198.717 6.86345 198.153 4.94147 196.948 3.54762V3.54695C195.718 2.12893 193.899 1.46448 191.6 1.46448H184.812H184.251V2.02484V30.975ZM43.6298 21.8165H38.5251L41.0464 8.63141L43.6298 21.8165ZM132.103 9.03212V23.9886C132.103 26.3311 132.688 28.2497 133.924 29.6775C135.18 31.1285 136.991 31.8179 139.262 31.8179C141.558 31.8179 143.387 31.1301 144.651 29.6788C145.895 28.251 146.484 26.3319 146.484 23.9886V9.03212C146.484 6.66683 145.896 4.73752 144.65 3.31517C143.386 1.86771 141.558 1.18188 139.262 1.18188C136.98 1.18188 135.164 1.86832 133.914 3.31749C132.684 4.73987 132.103 6.66827 132.103 9.03212ZM191.557 27.4893H188.606V5.53673H191.515C192.561 5.53673 193.251 5.84059 193.694 6.36319C194.152 6.90349 194.431 7.77398 194.431 9.07398V23.952C194.431 25.2533 194.155 26.1249 193.702 26.6654C193.265 27.1868 192.586 27.4893 191.557 27.4893Z" fill="white" stroke="black" stroke-width="0.856229" stroke-linecap="round"/>
<path d="M4.92572 31.5355H4.36537H1.56036H1V30.9751V2.02496V1.4646H1.56036H6.06093H6.51761L6.60976 1.91189L10.8127 22.3123L14.8578 1.91595L14.9473 1.4646H15.4074H19.9081H20.4684V2.02496V30.9751V31.5355H19.9081H16.8623H16.3019V30.9751V13.4073L12.8067 31.0422L12.7172 31.4935H12.257H9.16946H8.71392L8.6209 31.0476L4.92572 13.3325V30.9751V31.5355Z" fill="white" stroke="black" stroke-width="0.856229" stroke-linecap="round"/>
</svg>
