<svg width="41" height="41" viewBox="0 0 41 41" fill="none" xmlns="http://www.w3.org/2000/svg">
<g clip-path="url(#clip0_11_234)">
<path d="M20.5001 40.1808C31.1209 40.1808 39.7308 31.5709 39.7308 20.95C39.7308 10.3291 31.1209 1.71924 20.5001 1.71924C9.8792 1.71924 1.26929 10.3291 1.26929 20.95C1.26929 31.5709 9.8792 40.1808 20.5001 40.1808Z" stroke="#F5333F"/>
<path d="M17.5503 31.649C26.2497 31.649 31.0072 24.4422 31.0072 18.1921C31.0072 17.9876 31.0072 17.7839 30.9937 17.5813C31.9195 16.9114 32.7187 16.082 33.3537 15.1319C32.4906 15.5148 31.575 15.7661 30.6373 15.8773C31.6244 15.2859 32.363 14.3561 32.716 13.2608C31.7877 13.8116 30.7723 14.1998 29.7133 14.4087C29.0001 13.6504 28.057 13.1482 27.0298 12.98C26.0026 12.8117 24.9484 12.9867 24.0306 13.4779C23.1129 13.969 22.3826 14.749 21.9527 15.697C21.5227 16.645 21.4173 17.7084 21.6527 18.7224C19.7724 18.6281 17.9329 18.1394 16.2537 17.2884C14.5744 16.4371 13.0929 15.2423 11.9053 13.7814C11.3007 14.8227 11.1156 16.0553 11.3877 17.2282C11.6598 18.4011 12.3687 19.4262 13.3701 20.095C12.6174 20.0724 11.8811 19.8691 11.2234 19.5022V19.5628C11.2237 20.6547 11.6016 21.713 12.2931 22.5579C12.9846 23.403 13.9471 23.9828 15.0174 24.1991C14.3212 24.3888 13.5907 24.4165 12.8822 24.2799C13.1844 25.2196 13.7727 26.0414 14.5649 26.6305C15.3571 27.2194 16.3135 27.5462 17.3006 27.5648C16.3198 28.3353 15.1969 28.905 13.9959 29.2413C12.7949 29.5774 11.5395 29.6736 10.3013 29.5244C12.4639 30.9125 14.9804 31.6491 17.5503 31.6461" fill="#F5333F"/>
</g>
<defs>
<clipPath id="clip0_11_234">
<rect width="40" height="40" fill="white" transform="translate(0.5 0.949951)"/>
</clipPath>
</defs>
</svg>
